<?xml version="1.0" encoding="UTF-8"?>
<svg width="104px" height="27px" viewBox="0 0 104 27" version="1.1" xmlns="http://www.w3.org/2000/svg" xmlns:xlink="http://www.w3.org/1999/xlink">
    <title>Group 2</title>
    <defs>
        <polygon id="path-1" points="0 0 32.5079365 0 32.5079365 10 0 10"></polygon>
    </defs>
    <g id="New-HomePage" stroke="none" stroke-width="1" fill="none" fill-rule="evenodd">
        <g id="Artboard" transform="translate(-73.000000, -57.000000)">
            <g id="Group-2" transform="translate(74.000000, 57.500000)">
                <g id="Group-4" transform="translate(70.000000, 0.000000)">
                    <polygon id="Fill-1" fill="#131B1F" points="12.6607625 10 8.12698413 5.49901363 3.59320577 10 2.03174603 8.05123259 8.12698413 2 14.2222222 8.05123259"></polygon>
                    <polygon id="Fill-2" fill="#131B1F" points="25.1588953 0 25.1588953 4.76990323 20.3174603 4.76990323 20.3174603 7.23009677 25.1588953 7.23009677 25.1588953 12 27.6665015 12 27.6665015 7.23009677 32.5079365 7.23009677 32.5079365 4.76990323 27.6665015 4.76990323 27.6665015 0"></polygon>
                    <g id="Group" transform="translate(0.000000, 16.000000)">
                        <mask id="mask-2" fill="white">
                            <use xlink:href="#path-1"></use>
                        </mask>
                        <g id="Clip-4"></g>
                        <path d="M16.6691647,10 C14.7597381,10 12.8190894,9.72275013 10.9011478,9.17558758 C5.9590958,7.76552238 2.64161186,5.01371214 2.27966324,4.70458755 L0,2.75373475 L2.09937014,0 L4.3777845,1.94977026 C4.49869895,2.05297217 7.41506479,4.51526378 11.7699153,5.75753566 C13.4047014,6.22374847 15.0529982,6.46022276 16.6691647,6.46022276 C20.7765095,6.46022276 24.632602,4.9427458 28.1300385,1.94977026 L30.4085664,0 L32.5079365,2.75373475 L30.2294086,4.70350502 C26.1224044,8.21802305 21.5602395,10 16.6691647,10" id="Fill-3" fill="#FFA41B" mask="url(#mask-2)"></path>
                    </g>
                </g>
                <g id="Group-3" transform="translate(0.000000, 4.000000)" fill="#131B1F" stroke="#131B1F" stroke-width="0.9">
                    <path d="M36.4272983,10.3221019 C36.4272983,12.0769397 35.5744246,12.9537631 33.8686771,12.9537631 L28.839571,12.9537631 C27.0765498,12.9537631 26.1948909,12.0769397 26.1948909,10.3221019 L26.216554,1.83852933e-13 L24.3244444,1.83852933e-13 L24.3244444,10.4084445 C24.3244444,11.7672975 24.7292182,12.8388382 25.5393592,13.6224712 C26.3489067,14.3992563 27.4489773,14.7875 28.839571,14.7875 L33.8686771,14.7875 C36.8359299,14.7875 38.3191111,13.3280133 38.3191111,10.4084445 L38.3191111,6.52749612 L36.4272983,6.52749612 L36.4272983,10.3221019 Z" id="Fill-1"></path>
                    <polygon id="Fill-3" points="32.9866667 21.2 35.3191111 21.2 35.3191111 18.925 32.9866667 18.925"></polygon>
                    <path d="M12.7631826,13.5888273 C12.7732909,13.5784067 12.7837056,13.5694747 12.7932013,13.5581609 C12.8296527,13.516776 12.8688609,13.4700319 12.9099069,13.4206083 C12.9913864,13.3193791 13.0722533,13.2172567 13.1469939,13.1050114 C13.1476065,13.1056068 13.1485255,13.1065 13.1488318,13.1070955 C13.6429162,12.4211189 14.2255253,11.3144457 14.1955065,9.95559275 C14.1811097,9.72336108 14.1676319,9.52000951 14.1676319,9.28658692 C14.1676319,6.64807795 14.9634355,5.32852573 16.5535111,5.32852573 C18.1585961,5.32852573 18.9617513,6.66236913 18.9617513,9.32975819 C18.9617513,11.8610833 18.1585961,13.1264481 16.5535111,13.1264481 C15.8563406,13.1264481 15.3209039,12.8650387 14.9294347,12.3731839 C14.6497701,13.0412965 14.2959775,13.5861477 13.9869067,13.9839189 C14.6773383,14.5150744 15.5301163,14.7875 16.5535111,14.7875 C19.51281,14.7875 20.992,12.9466175 20.992,9.26544788 C20.992,7.52549681 20.5962424,6.16277332 19.8047272,5.17757515 C19.013212,4.19267471 17.9297796,3.69992676 16.5535111,3.69992676 C13.7424682,3.69992676 12.2887023,5.45089395 12.1931323,8.9525306 C12.1827177,9.36816573 12.1744472,9.78380086 12.1677083,10.1991383 C12.1379958,10.6883134 12.0261912,11.1024599 11.8708901,11.4978492 C11.4567536,12.4684584 10.7834756,12.9537631 9.85166865,12.9537631 L9.80051422,12.9537631 L4.66056646,12.9537631 C2.8407554,12.9537631 1.93069671,12.0769397 1.93069671,10.3221019 L1.95275131,1.83852933e-13 L-8.13571432e-13,1.83852933e-13 L-8.13571432e-13,10.4084445 C-8.13571432e-13,11.7678929 0.417812202,12.8388382 1.25374292,13.6224712 C2.07956528,14.3897288 3.19883638,14.7761861 4.60941203,14.7860113 L4.60941203,14.7875 L4.66056646,14.7875 L9.80051422,14.7875 L9.85166865,14.7875 C10.9825797,14.7875 11.8950889,14.4388548 12.5980794,13.7558555 C12.5980794,13.7558555 12.7169292,13.638251 12.7631826,13.5888273" id="Fill-5"></path>
                    <polygon id="Fill-6" points="55.48 21.2 57.8124444 21.2 57.8124444 18.925 55.48 18.925"></polygon>
                    <path d="M61.3111111,12.9535761 L61.3111111,14.7845229 L59.3791029,14.7845229 L59.3791029,14.7875 L46.1497532,14.7875 C44.7145471,14.7875 43.5765022,14.3974935 42.7392987,13.6204575 C41.9020951,12.8374673 41.4853333,11.7656936 41.4853333,10.4081135 L41.4853333,1.83852933e-13 L43.4388083,1.83852933e-13 L43.4170349,10.3217762 C43.4170349,12.0753171 44.3278388,12.9535761 46.1497532,12.9535761 L59.3791029,12.9535761 L59.3791029,12.8642616 L59.3732762,12.8642616 C59.3610095,11.3223961 59.0601682,10.0389471 58.465539,9.01480773 C57.9779369,8.18120596 57.3060274,7.53516459 56.4565571,7.07370646 C56.122289,6.89507751 55.7634875,6.74622005 55.3770858,6.63308838 C54.7662032,6.45952059 54.166054,6.35978609 53.534318,6.3740764 L53.534318,4.64732988 C56.0946889,4.64732988 58.066564,5.46902305 59.4435032,7.1064551 C60.6888818,8.5950297 61.3111111,10.5450624 61.3111111,12.9535761" id="Fill-7"></path>
                </g>
            </g>
        </g>
    </g>
</svg>